<mxfile host="app.diagrams.net" agent="Mozilla/5.0 (Macintosh; Intel Mac OS X 10_15_7) AppleWebKit/537.36 (KHTML, like Gecko) Chrome/132.0.0.0 Safari/537.36" version="26.1.1">
  <diagram name="Page-1" id="BAsR5TB5KbsM6-LC__w9">
    <mxGraphModel dx="1199" dy="696" grid="1" gridSize="10" guides="1" tooltips="1" connect="1" arrows="1" fold="1" page="1" pageScale="1" pageWidth="850" pageHeight="1100" math="0" shadow="0">
      <root>
        <mxCell id="0" />
        <mxCell id="1" parent="0" />
        <mxCell id="sU6Js1ykrTdCfGLGLqfn-1" value="" style="ellipse;html=1;shape=startState;fillColor=#000000;strokeColor=#000000;" parent="1" vertex="1">
          <mxGeometry x="210" y="60" width="30" height="30" as="geometry" />
        </mxCell>
        <mxCell id="sU6Js1ykrTdCfGLGLqfn-2" value="" style="edgeStyle=orthogonalEdgeStyle;html=1;verticalAlign=bottom;endArrow=classic;endSize=8;strokeColor=#000000;rounded=0;endFill=1;" parent="1" source="sU6Js1ykrTdCfGLGLqfn-1" edge="1">
          <mxGeometry relative="1" as="geometry">
            <mxPoint x="225" y="150" as="targetPoint" />
          </mxGeometry>
        </mxCell>
        <mxCell id="sU6Js1ykrTdCfGLGLqfn-3" value="Retrieve user preferences" style="rounded=1;whiteSpace=wrap;html=1;arcSize=40;fontColor=#000000;fillColor=#FFFFFF;strokeColor=#000000;" parent="1" vertex="1">
          <mxGeometry x="165" y="150" width="120" height="40" as="geometry" />
        </mxCell>
        <mxCell id="sU6Js1ykrTdCfGLGLqfn-4" value="" style="edgeStyle=orthogonalEdgeStyle;html=1;verticalAlign=bottom;endArrow=classic;endSize=8;strokeColor=#000000;rounded=0;endFill=1;" parent="1" source="sU6Js1ykrTdCfGLGLqfn-3" edge="1">
          <mxGeometry relative="1" as="geometry">
            <mxPoint x="225" y="250" as="targetPoint" />
          </mxGeometry>
        </mxCell>
        <mxCell id="sU6Js1ykrTdCfGLGLqfn-5" value="Generate Recommendations" style="rounded=1;whiteSpace=wrap;html=1;arcSize=40;fontColor=#000000;fillColor=#FFFFFF;strokeColor=#000000;" parent="1" vertex="1">
          <mxGeometry x="165" y="250" width="120" height="40" as="geometry" />
        </mxCell>
        <mxCell id="sU6Js1ykrTdCfGLGLqfn-6" value="" style="edgeStyle=orthogonalEdgeStyle;html=1;verticalAlign=bottom;endArrow=classic;endSize=8;strokeColor=#000000;rounded=0;endFill=1;" parent="1" source="sU6Js1ykrTdCfGLGLqfn-5" edge="1">
          <mxGeometry relative="1" as="geometry">
            <mxPoint x="225" y="350" as="targetPoint" />
          </mxGeometry>
        </mxCell>
        <mxCell id="sU6Js1ykrTdCfGLGLqfn-7" value="Sort by relevance" style="rounded=1;whiteSpace=wrap;html=1;arcSize=40;fontColor=#000000;fillColor=#FFFFFF;strokeColor=#000000;" parent="1" vertex="1">
          <mxGeometry x="165" y="350" width="120" height="40" as="geometry" />
        </mxCell>
        <mxCell id="sU6Js1ykrTdCfGLGLqfn-8" value="" style="edgeStyle=orthogonalEdgeStyle;html=1;verticalAlign=bottom;endArrow=classic;endSize=8;strokeColor=#000000;rounded=0;endFill=1;" parent="1" source="sU6Js1ykrTdCfGLGLqfn-7" edge="1">
          <mxGeometry relative="1" as="geometry">
            <mxPoint x="225" y="450" as="targetPoint" />
          </mxGeometry>
        </mxCell>
        <mxCell id="sU6Js1ykrTdCfGLGLqfn-9" value="Display recommendations" style="rounded=1;whiteSpace=wrap;html=1;arcSize=40;fontColor=#000000;fillColor=#FFFFFF;strokeColor=#000000;" parent="1" vertex="1">
          <mxGeometry x="165" y="450" width="120" height="40" as="geometry" />
        </mxCell>
        <mxCell id="sU6Js1ykrTdCfGLGLqfn-10" value="" style="edgeStyle=orthogonalEdgeStyle;html=1;verticalAlign=bottom;endArrow=classic;endSize=8;strokeColor=#000000;rounded=0;endFill=1;" parent="1" source="sU6Js1ykrTdCfGLGLqfn-9" edge="1">
          <mxGeometry relative="1" as="geometry">
            <mxPoint x="225" y="550" as="targetPoint" />
          </mxGeometry>
        </mxCell>
        <mxCell id="sU6Js1ykrTdCfGLGLqfn-11" value="" style="ellipse;html=1;shape=endState;fillColor=#000000;strokeColor=#000000;" parent="1" vertex="1">
          <mxGeometry x="210" y="550" width="30" height="30" as="geometry" />
        </mxCell>
      </root>
    </mxGraphModel>
  </diagram>
</mxfile>
